<svg width="563" height="2068" viewBox="0 0 563 2068" fill="none" xmlns="http://www.w3.org/2000/svg">
<path d="M380.649 1946.66L340.927 1923.34L309.726 1969.77C327.954 1984.99 358.577 1996.05 374.401 1992.67C406.875 1985.74 472.498 1893.53 481.604 1886.51C512.602 1862.62 522.678 1853.55 483.89 1872.12C446.909 1889.82 466.496 1872.12 457.436 1872.12C446.551 1872.88 450.158 1882.54 454.198 1889.46L380.649 1946.66Z" fill="url(#paint0_linear_1_532)"/>
<path d="M155.267 1911.33C166.474 1903.55 210.756 1889.53 230.204 1883.5L250.779 1885.74C263.743 1888.96 291.549 1894.44 304.34 1899.62C317.131 1904.81 340.343 1921.34 361.998 1935.13L356.885 1952.84C352.293 1968.74 340.15 1981.36 324.432 1986.55C320.387 2012.27 316.899 2054.09 317.475 2067.05L166.989 2066.93L160.1 2003.29L129.111 2006.6L102.934 1986.55C135.711 1929.85 141.259 1921.06 155.267 1911.33Z" fill="url(#paint1_linear_1_532)"/>
<path d="M112.216 2057.59C64.5352 2051.54 95.5463 2003.22 104 1987.26C114.225 1995.87 126.851 2001.12 140.164 2002.3L156.595 2003.76L149.867 2019.28L222.506 2036.29L232.697 2064.56C225.438 2063.32 171.509 2065.11 112.216 2057.59Z" fill="url(#paint2_linear_1_532)"/>
<path d="M235.275 1756.62C237.622 1752.38 244.352 1746.44 252.499 1756.62H235.275Z" fill="#30235B"/>
<ellipse cx="239.187" cy="1902.01" rx="25.9725" ry="18.5082" fill="#CF0606"/>
<path d="M217.906 1901.01L221.536 1864.86H256.881L260.941 1901.01C259.522 1905.27 252.822 1913.9 240.416 1913.9C224.603 1913.9 218.919 1905.27 217.906 1901.01Z" fill="url(#paint3_linear_1_532)"/>
<mask id="mask0_1_532" style="mask-type:alpha" maskUnits="userSpaceOnUse" x="217" y="1864" width="44" height="50">
<path d="M217.906 1901.01L221.536 1864.86H256.881L260.949 1901.08C259.53 1905.34 252.807 1913.91 240.4 1913.91C224.588 1913.91 218.919 1905.27 217.906 1901.01Z" fill="url(#paint4_linear_1_532)"/>
</mask>
<g mask="url(#mask0_1_532)">
<path opacity="0.1" d="M269.619 1866.25C237.66 1905.79 219.801 1873.99 210.576 1869.22L216.915 1842.49L254.757 1837.97L269.619 1866.25Z" fill="black"/>
</g>
<path d="M238.574 1879.37C200.457 1879.37 193.902 1824.66 205.679 1799.63C232.177 1767.25 265.301 1786.14 278.55 1799.63C281.74 1820.49 285.257 1879.37 238.574 1879.37Z" fill="url(#paint5_linear_1_532)"/>
<path d="M279.201 1837.52L271.733 1832.01L272.888 1827.92L281.418 1833.54L279.201 1837.52Z" fill="#111111"/>
<path d="M201.396 1835.92L208.864 1830.42L207.709 1826.32L199.179 1831.95L201.396 1835.92Z" fill="#111111"/>
<path d="M208.23 1802.92C235.253 1820.53 265.212 1810.26 276.813 1802.92C274.37 1810.63 277.831 1825.43 279.866 1831.88C297.45 1808.98 291.701 1796.61 286.629 1793.29C285.784 1781.88 275.409 1753.34 240.58 1754.7C205.751 1756.05 198.992 1780.75 199.979 1789.91C186.791 1807.83 194.637 1825.35 200.998 1831.88C208.23 1817.84 208.065 1807.99 208.23 1802.92Z" fill="#30235B"/>
<path opacity="0.5" d="M222.149 1843.91C216.757 1843.91 214.041 1839.66 213.351 1837.76C212.557 1836.17 211.931 1832.04 213.81 1828.75C216.199 1824.58 227.428 1823.41 231.362 1829.31C235.295 1835.21 231.362 1843.91 222.149 1843.91Z" fill="#E6FCFF"/>
<path opacity="0.5" d="M257.88 1843.91C263.273 1843.91 265.988 1839.66 266.678 1837.76C267.472 1836.17 268.099 1832.04 266.22 1828.75C263.831 1824.58 252.601 1823.41 248.668 1829.31C244.734 1835.21 248.668 1843.91 257.88 1843.91Z" fill="#E6FCFF"/>
<path fill-rule="evenodd" clip-rule="evenodd" d="M234.147 1828.01C225.353 1820.29 217.409 1823.55 212.702 1825.49C212.179 1825.71 211.695 1825.91 211.255 1826.07L208.308 1826.08C207.753 1826.08 207.305 1826.53 207.31 1827.09L207.332 1829.56C207.337 1830.11 207.783 1830.55 208.332 1830.55L210.463 1830.55C208.919 1843.8 218.691 1847.35 226.506 1844.96C233.474 1842.83 235.339 1836.81 235.712 1833.03C237.202 1829.73 243.736 1831.25 243.995 1832.95C244.001 1832.99 244.008 1833.04 244.015 1833.09L244.015 1833.09C244.322 1835.16 245.867 1845.61 257.63 1845.63C267.265 1845.64 269.878 1837.03 269.98 1832.72L272.475 1832.7C273.027 1832.7 273.471 1832.25 273.466 1831.69L273.439 1828.66C273.434 1828.11 272.982 1827.67 272.43 1827.67L269.936 1827.69C263.66 1821.33 250.178 1821.93 245.429 1827.91C240.19 1826.7 235.725 1827.47 234.147 1828.01ZM222.149 1843.91C216.757 1843.91 214.041 1839.66 213.351 1837.76C212.558 1836.17 211.931 1832.04 213.81 1828.75C216.199 1824.58 227.428 1823.41 231.362 1829.31C235.295 1835.21 231.362 1843.91 222.149 1843.91ZM266.679 1837.76C265.989 1839.66 263.274 1843.91 257.881 1843.91C248.669 1843.91 244.736 1835.21 248.669 1829.31C252.602 1823.41 263.832 1824.58 266.221 1828.75C268.1 1832.04 267.473 1836.17 266.679 1837.76Z" fill="#111111"/>
<path d="M163.801 2061.69C163.801 2061.13 164.251 2060.68 164.806 2060.68H319.198C320.169 2060.68 320.956 2061.47 320.956 2062.44C320.956 2065.35 318.595 2067.71 315.682 2067.71H169.829C166.5 2067.71 163.801 2065.02 163.801 2061.69Z" fill="#B4B4B4"/>
<rect x="163.801" y="1958.15" width="157.155" height="105.147" rx="2.94666" fill="url(#paint6_linear_1_532)"/>
<circle cx="242.378" cy="2010.72" r="11.1765" fill="white"/>
<path fill-rule="evenodd" clip-rule="evenodd" d="M130.715 1822.88C130.915 1819.47 131.594 1816.61 132.161 1815.03C133.273 1817.81 133.823 1820.48 134.009 1822.92C136.445 1823.1 139.116 1823.65 141.897 1824.76C140.311 1825.33 137.458 1826.01 134.049 1826.21C133.859 1829.83 132.929 1832.64 132.161 1834.08C131.226 1831.46 130.799 1828.77 130.688 1826.24C128.153 1826.13 125.461 1825.7 122.844 1824.76C124.285 1824 127.096 1823.07 130.715 1822.88Z" fill="url(#paint7_linear_1_532)"/>
<path fill-rule="evenodd" clip-rule="evenodd" d="M103.828 1800.45C103.96 1798.18 104.413 1796.28 104.79 1795.22C105.53 1797.08 105.896 1798.85 106.02 1800.48C107.641 1800.6 109.419 1800.97 111.271 1801.71C110.215 1802.08 108.316 1802.54 106.047 1802.67C105.92 1805.08 105.301 1806.95 104.79 1807.91C104.167 1806.17 103.884 1804.37 103.81 1802.69C102.122 1802.61 100.33 1802.33 98.5885 1801.71C99.5471 1801.19 101.419 1800.58 103.828 1800.45Z" fill="url(#paint8_linear_1_532)"/>
<path fill-rule="evenodd" clip-rule="evenodd" d="M60.5044 1784.47C60.7037 1781.06 61.3833 1778.21 61.9497 1776.62C63.0625 1779.4 63.6125 1782.08 63.7985 1784.51C66.234 1784.7 68.9048 1785.25 71.6866 1786.36C70.1006 1786.93 67.2472 1787.61 63.8385 1787.81C63.6484 1791.42 62.7178 1794.24 61.9497 1795.68C61.0152 1793.06 60.5887 1790.37 60.4774 1787.83C57.9422 1787.72 55.2505 1787.29 52.6336 1786.36C54.0738 1785.59 56.8855 1784.66 60.5044 1784.47Z" fill="url(#paint9_linear_1_532)"/>
<path fill-rule="evenodd" clip-rule="evenodd" d="M64.2134 1862.81C64.5066 1857.8 65.5065 1853.6 66.3398 1851.27C67.9769 1855.36 68.7862 1859.29 69.0598 1862.87C72.643 1863.14 76.5724 1863.95 80.6651 1865.59C78.3317 1866.42 74.1337 1867.42 69.1187 1867.72C68.839 1873.04 67.4698 1877.18 66.3398 1879.3C64.9648 1875.45 64.3374 1871.49 64.1737 1867.76C60.4438 1867.59 56.4836 1866.97 52.6336 1865.59C54.7524 1864.46 58.8892 1863.09 64.2134 1862.81Z" fill="url(#paint10_linear_1_532)"/>
<circle cx="94.6823" cy="1833.16" r="1.8414" fill="#2F235A"/>
<circle cx="136.94" cy="1780.36" r="1.8414" fill="#FE9076"/>
<circle cx="44.3205" cy="1825.85" r="1.8414" fill="#FFA400"/>
<circle cx="126.847" cy="1861.56" r="1.8414" fill="#23BB86"/>
<path d="M132.428 1772.67C128.265 1766.96 116.538 1754.74 102.934 1751.63" stroke="#FE9076" stroke-width="1.60277" stroke-linecap="round"/>
<path d="M36.5511 1820.91C30.3979 1817.42 14.6733 1811.15 1.00001 1813.93" stroke="#FFA400" stroke-width="1.60277" stroke-linecap="round"/>
<path d="M120.527 1866.91C117.374 1869.69 109.788 1877.59 104.669 1886.94" stroke="#23BB86" stroke-width="1.60277" stroke-linecap="round"/>
<path fill-rule="evenodd" clip-rule="evenodd" d="M348.065 1822.88C347.866 1819.47 347.186 1816.61 346.62 1815.03C345.507 1817.81 344.957 1820.48 344.771 1822.92C342.335 1823.1 339.664 1823.65 336.883 1824.76C338.469 1825.33 341.322 1826.01 344.731 1826.21C344.921 1829.83 345.851 1832.64 346.62 1834.08C347.554 1831.46 347.981 1828.77 348.092 1826.24C350.627 1826.13 353.319 1825.7 355.936 1824.76C354.496 1824 351.684 1823.07 348.065 1822.88Z" fill="url(#paint11_linear_1_532)"/>
<path fill-rule="evenodd" clip-rule="evenodd" d="M374.953 1800.45C374.82 1798.18 374.368 1796.28 373.991 1795.22C373.25 1797.08 372.884 1798.85 372.76 1800.48C371.139 1800.6 369.361 1800.97 367.509 1801.71C368.565 1802.08 370.464 1802.54 372.733 1802.67C372.86 1805.08 373.479 1806.95 373.991 1807.91C374.613 1806.17 374.896 1804.37 374.971 1802.69C376.658 1802.61 378.45 1802.33 380.192 1801.71C379.233 1801.19 377.361 1800.58 374.953 1800.45Z" fill="url(#paint12_linear_1_532)"/>
<path fill-rule="evenodd" clip-rule="evenodd" d="M418.276 1784.47C418.076 1781.06 417.397 1778.21 416.83 1776.62C415.718 1779.4 415.168 1782.08 414.982 1784.51C412.546 1784.7 409.875 1785.25 407.093 1786.36C408.679 1786.93 411.533 1787.61 414.942 1787.81C415.132 1791.42 416.062 1794.24 416.83 1795.68C417.765 1793.06 418.191 1790.37 418.303 1787.83C420.838 1787.72 423.53 1787.29 426.146 1786.36C424.706 1785.59 421.895 1784.66 418.276 1784.47Z" fill="url(#paint13_linear_1_532)"/>
<path fill-rule="evenodd" clip-rule="evenodd" d="M414.567 1862.81C414.273 1857.8 413.274 1853.6 412.44 1851.27C410.803 1855.36 409.994 1859.29 409.72 1862.87C406.137 1863.14 402.208 1863.95 398.115 1865.59C400.448 1866.42 404.646 1867.42 409.661 1867.72C409.941 1873.04 411.31 1877.18 412.44 1879.3C413.815 1875.45 414.443 1871.49 414.606 1867.76C418.336 1867.59 422.296 1866.97 426.146 1865.59C424.028 1864.46 419.891 1863.09 414.567 1862.81Z" fill="url(#paint14_linear_1_532)"/>
<circle r="1.8414" transform="matrix(-1 0 0 1 384.098 1833.16)" fill="#2F235A"/>
<circle r="1.8414" transform="matrix(-1 0 0 1 341.84 1780.36)" fill="#FE9076"/>
<circle r="1.8414" transform="matrix(-1 0 0 1 434.46 1825.85)" fill="#FFA400"/>
<circle r="1.8414" transform="matrix(-1 0 0 1 351.933 1861.56)" fill="#23BB86"/>
<path d="M346.352 1772.67C350.515 1766.96 362.242 1754.74 375.846 1751.63" stroke="#FE9076" stroke-width="1.60277" stroke-linecap="round"/>
<path d="M442.229 1820.91C448.382 1817.42 464.107 1811.15 477.78 1813.93" stroke="#FFA400" stroke-width="1.60277" stroke-linecap="round"/>
<path d="M358.253 1866.91C361.406 1869.69 368.992 1877.59 374.111 1886.94" stroke="#23BB86" stroke-width="1.60277" stroke-linecap="round"/>
<path d="M269.426 1709.17C267.338 1705.95 263.112 1707.71 263.112 1711.22C263.112 1713.86 268.906 1717.98 269.426 1718.52C269.95 1717.98 275.456 1713.86 275.456 1711.22C275.456 1707.73 271.518 1705.95 269.426 1709.17Z" fill="#FFBCBC"/>
<circle cx="269.284" cy="1713" r="13.7999" stroke="#F7F7F7" stroke-width="0.649684"/>
<circle cx="544.836" cy="5.94072" r="5.94072" transform="rotate(90 544.836 5.94072)" fill="#001F7E" fill-opacity="0.07"/>
<circle cx="544.836" cy="30.418" r="5.94072" transform="rotate(90 544.836 30.418)" fill="#001F7E" fill-opacity="0.07"/>
<circle cx="544.836" cy="54.8955" r="5.94072" transform="rotate(90 544.836 54.8955)" fill="#001F7E" fill-opacity="0.07"/>
<circle cx="544.836" cy="79.3728" r="5.94072" transform="rotate(90 544.836 79.3728)" fill="#001F7E" fill-opacity="0.07"/>
<circle cx="544.836" cy="103.85" r="5.94072" transform="rotate(90 544.836 103.85)" fill="#001F7E" fill-opacity="0.07"/>
<circle cx="544.836" cy="128.328" r="5.94072" transform="rotate(90 544.836 128.328)" fill="#001F7E" fill-opacity="0.07"/>
<circle cx="517.388" cy="5.94072" r="5.94072" transform="rotate(90 517.388 5.94072)" fill="#001F7E" fill-opacity="0.07"/>
<circle cx="517.388" cy="30.418" r="5.94072" transform="rotate(90 517.388 30.418)" fill="#001F7E" fill-opacity="0.07"/>
<circle cx="517.388" cy="54.8955" r="5.94072" transform="rotate(90 517.388 54.8955)" fill="#001F7E" fill-opacity="0.07"/>
<circle cx="517.388" cy="79.3728" r="5.94072" transform="rotate(90 517.388 79.3728)" fill="#001F7E" fill-opacity="0.07"/>
<circle cx="517.388" cy="103.85" r="5.94072" transform="rotate(90 517.388 103.85)" fill="#001F7E" fill-opacity="0.07"/>
<circle cx="517.388" cy="128.328" r="5.94072" transform="rotate(90 517.388 128.328)" fill="#001F7E" fill-opacity="0.07"/>
<circle cx="489.941" cy="5.94072" r="5.94072" transform="rotate(90 489.941 5.94072)" fill="#001F7E" fill-opacity="0.07"/>
<circle cx="489.941" cy="30.418" r="5.94072" transform="rotate(90 489.941 30.418)" fill="#001F7E" fill-opacity="0.07"/>
<circle cx="489.941" cy="54.8955" r="5.94072" transform="rotate(90 489.941 54.8955)" fill="#001F7E" fill-opacity="0.07"/>
<circle cx="489.941" cy="79.3728" r="5.94072" transform="rotate(90 489.941 79.3728)" fill="#001F7E" fill-opacity="0.07"/>
<circle cx="489.941" cy="103.85" r="5.94072" transform="rotate(90 489.941 103.85)" fill="#001F7E" fill-opacity="0.07"/>
<circle cx="489.941" cy="128.328" r="5.94072" transform="rotate(90 489.941 128.328)" fill="#001F7E" fill-opacity="0.07"/>
<path d="M219.903 1689.94C218.055 1687.09 214.315 1688.64 214.315 1691.75C214.315 1694.09 219.443 1697.74 219.903 1698.21C220.367 1697.74 225.24 1694.09 225.24 1691.75C225.24 1688.66 221.755 1687.09 219.903 1689.94Z" fill="#FFBCBC"/>
<circle cx="219.777" cy="1693.33" r="12.2135" stroke="#F7F7F7" stroke-width="0.574998"/>
<path d="M252.586 1668.97C251.322 1667.01 248.763 1668.08 248.763 1670.2C248.763 1671.8 252.271 1674.3 252.586 1674.62C252.903 1674.3 256.235 1671.8 256.235 1670.2C256.235 1668.09 253.852 1667.01 252.586 1668.97Z" fill="#FFBCBC"/>
<circle cx="252.499" cy="1671.28" r="8.35318" stroke="#F7F7F7" stroke-width="0.393259"/>
<path d="M194.856 1658.1C193.822 1656.5 191.729 1657.37 191.729 1659.11C191.729 1660.42 194.598 1662.47 194.856 1662.73C195.115 1662.47 197.842 1660.42 197.842 1659.11C197.842 1657.39 195.892 1656.5 194.856 1658.1Z" fill="#FFBCBC"/>
<circle cx="194.785" cy="1660" r="6.83488" stroke="#F7F7F7" stroke-width="0.321779"/>
<path d="M189.769 1732.99C187.511 1729.5 182.941 1731.4 182.941 1735.2C182.941 1738.05 189.206 1742.51 189.769 1743.1C190.336 1742.51 196.29 1738.05 196.29 1735.2C196.29 1731.43 192.031 1729.5 189.769 1732.99Z" fill="#FFBCBC"/>
<circle cx="189.615" cy="1737.12" r="14.9226" stroke="#F7F7F7" stroke-width="0.702541"/>
<defs>
<linearGradient id="paint0_linear_1_532" x1="390.781" y1="1811.32" x2="393.428" y2="1987.19" gradientUnits="userSpaceOnUse">
<stop stop-color="#FFEFE0"/>
<stop offset="1" stop-color="#FFBE99"/>
</linearGradient>
<linearGradient id="paint1_linear_1_532" x1="242.275" y1="1853.21" x2="229.875" y2="2101.55" gradientUnits="userSpaceOnUse">
<stop stop-color="#FF9F81"/>
<stop offset="1" stop-color="#F53838"/>
</linearGradient>
<linearGradient id="paint2_linear_1_532" x1="227.21" y1="1940.48" x2="108.538" y2="1997.36" gradientUnits="userSpaceOnUse">
<stop offset="0.0677966" stop-color="#FFEFE0"/>
<stop offset="1" stop-color="#FFBE99"/>
</linearGradient>
<linearGradient id="paint3_linear_1_532" x1="238.204" y1="1825.98" x2="240.284" y2="1892.36" gradientUnits="userSpaceOnUse">
<stop stop-color="#FFEFE0"/>
<stop offset="1" stop-color="#FFBE99"/>
</linearGradient>
<linearGradient id="paint4_linear_1_532" x1="238.204" y1="1825.98" x2="235.29" y2="1901.61" gradientUnits="userSpaceOnUse">
<stop stop-color="#FFEFE0"/>
<stop offset="1" stop-color="#FFBE99"/>
</linearGradient>
<linearGradient id="paint5_linear_1_532" x1="241.661" y1="1790.58" x2="241.661" y2="1870.3" gradientUnits="userSpaceOnUse">
<stop stop-color="#FFEFE0"/>
<stop offset="1" stop-color="#FFBE99"/>
</linearGradient>
<linearGradient id="paint6_linear_1_532" x1="274.829" y1="1879.23" x2="216.724" y2="2087.73" gradientUnits="userSpaceOnUse">
<stop offset="0.0171777" stop-color="white"/>
<stop offset="1" stop-color="#D7D7D7"/>
</linearGradient>
<linearGradient id="paint7_linear_1_532" x1="132.371" y1="1817.06" x2="132.371" y2="1834.94" gradientUnits="userSpaceOnUse">
<stop stop-color="#FFE89E"/>
<stop offset="1" stop-color="#FFBF1A"/>
</linearGradient>
<linearGradient id="paint8_linear_1_532" x1="104.93" y1="1796.57" x2="104.93" y2="1808.48" gradientUnits="userSpaceOnUse">
<stop stop-color="#FFE89E"/>
<stop offset="1" stop-color="#FFBF1A"/>
</linearGradient>
<linearGradient id="paint9_linear_1_532" x1="62.1601" y1="1778.65" x2="62.1601" y2="1796.54" gradientUnits="userSpaceOnUse">
<stop stop-color="#FFE89E"/>
<stop offset="1" stop-color="#FFBF1A"/>
</linearGradient>
<linearGradient id="paint10_linear_1_532" x1="66.6494" y1="1854.25" x2="66.6494" y2="1880.57" gradientUnits="userSpaceOnUse">
<stop stop-color="#FFE89E"/>
<stop offset="1" stop-color="#FFBF1A"/>
</linearGradient>
<linearGradient id="paint11_linear_1_532" x1="346.409" y1="1817.06" x2="346.409" y2="1834.94" gradientUnits="userSpaceOnUse">
<stop stop-color="#FFE89E"/>
<stop offset="1" stop-color="#FFBF1A"/>
</linearGradient>
<linearGradient id="paint12_linear_1_532" x1="373.85" y1="1796.57" x2="373.85" y2="1808.48" gradientUnits="userSpaceOnUse">
<stop stop-color="#FFE89E"/>
<stop offset="1" stop-color="#FFBF1A"/>
</linearGradient>
<linearGradient id="paint13_linear_1_532" x1="416.62" y1="1778.65" x2="416.62" y2="1796.54" gradientUnits="userSpaceOnUse">
<stop stop-color="#FFE89E"/>
<stop offset="1" stop-color="#FFBF1A"/>
</linearGradient>
<linearGradient id="paint14_linear_1_532" x1="412.131" y1="1854.25" x2="412.131" y2="1880.57" gradientUnits="userSpaceOnUse">
<stop stop-color="#FFE89E"/>
<stop offset="1" stop-color="#FFBF1A"/>
</linearGradient>
</defs>
</svg>
