<svg width="174" height="169" viewBox="0 0 174 169" fill="none" xmlns="http://www.w3.org/2000/svg">
<g clip-path="url(#clip0_1_353)">
<path d="M106.346 81.3362L89.1731 97.6073L16.6539 166.307C14.75 168.115 12.3077 169.019 9.8654 169.019C7.19232 169.019 4.51924 167.942 2.57693 165.807C-1.24999 161.615 -0.749989 155.056 3.65386 151.479L89.1731 82.2978L98.5962 74.6816L106.346 81.3362Z" fill="url(#paint0_linear_1_353)"/>
<path d="M88.4232 98.4343L71.5194 114.436L69.9617 97.9919L79.2117 90.5103L88.4232 98.4343Z" fill="#132F51" fill-opacity="0.8"/>
<path d="M174 56.1602C174 87.183 148.846 112.34 117.846 112.34C98.3077 112.34 81.0961 102.358 71.0384 87.2022C65.1346 78.3166 61.6923 67.6423 61.6923 56.1602C61.6923 25.1375 86.8461 0 117.846 0C131.846 0 144.635 5.11597 154.462 13.5785C166.423 23.8873 174 39.1391 174 56.1602Z" fill="url(#paint1_linear_1_353)"/>
<path d="M117.846 99.9152C142.009 99.9152 161.596 80.3255 161.596 56.1603C161.596 31.995 142.009 12.4053 117.846 12.4053C93.6838 12.4053 74.0963 31.995 74.0963 56.1603C74.0963 80.3255 93.6838 99.9152 117.846 99.9152Z" fill="white"/>
<path opacity="0.06" d="M174 56.1603C174 87.183 148.846 112.34 117.846 112.34C98.3078 112.34 81.0962 102.358 71.0385 87.2022C134.365 82.0478 151.058 28.3879 154.481 13.5785C166.423 23.8874 174 39.1391 174 56.1603Z" fill="#4E72E1"/>
<path d="M117.846 56.2564C122.923 56.2564 127.038 52.1405 127.038 47.063C127.038 41.9855 122.923 37.8697 117.846 37.8697C112.769 37.8697 108.654 41.9855 108.654 47.063C108.654 52.1405 112.75 56.2564 117.846 56.2564ZM117.846 60.8531C111.712 60.8531 99.4615 63.9304 99.4615 70.0464V72.3544C99.4615 73.6238 100.5 74.6623 101.769 74.6623H133.962C135.231 74.6623 136.269 73.6238 136.269 72.3544V70.0464C136.231 63.9496 123.981 60.8531 117.846 60.8531Z" fill="#496DDB"/>
</g>
<defs>
<linearGradient id="paint0_linear_1_353" x1="10.7352" y1="158.346" x2="72.0059" y2="106.507" gradientUnits="userSpaceOnUse">
<stop stop-color="#0A2A8B"/>
<stop offset="1" stop-color="#5A98F2"/>
</linearGradient>
<linearGradient id="paint1_linear_1_353" x1="94.6206" y1="3.96841" x2="137.156" y2="99.58" gradientUnits="userSpaceOnUse">
<stop stop-color="#001F7E"/>
<stop offset="1" stop-color="#5378E8"/>
</linearGradient>
<clipPath id="clip0_1_353">
<rect width="174" height="169" fill="white"/>
</clipPath>
</defs>
</svg>
