<svg width="147" height="167" viewBox="0 0 147 167" fill="none" xmlns="http://www.w3.org/2000/svg">
<path fill-rule="evenodd" clip-rule="evenodd" d="M52.4769 40.5121C53.1337 39.0864 53.9029 37.9788 54.4113 37.3949C54.4213 38.7722 54.209 40.0077 53.8803 41.0815C54.8917 41.5694 55.9427 42.2526 56.947 43.1952C56.1731 43.1718 54.8377 42.9844 53.3452 42.4983C52.6571 44.0155 51.7874 45.0631 51.2172 45.5508C51.2559 44.2739 51.5245 43.0502 51.9019 41.9464C50.8353 41.4738 49.7546 40.84 48.791 40.0012C49.5363 39.9138 50.8959 39.9868 52.4769 40.5121Z" fill="url(#paint0_linear_1_367)"/>
<path fill-rule="evenodd" clip-rule="evenodd" d="M47.2855 26.2294C47.7227 25.2804 48.2347 24.5432 48.5731 24.1545C48.5797 25.0713 48.4384 25.8937 48.2196 26.6084C48.8928 26.9332 49.5924 27.3879 50.2609 28.0154C49.7458 27.9998 48.8569 27.875 47.8635 27.5515C47.4055 28.5614 46.8266 29.2587 46.447 29.5833C46.4727 28.7334 46.6516 27.9189 46.9028 27.1841C46.1928 26.8695 45.4734 26.4476 44.8321 25.8893C45.3281 25.8312 46.2331 25.8798 47.2855 26.2294Z" fill="url(#paint1_linear_1_367)"/>
<path fill-rule="evenodd" clip-rule="evenodd" d="M33.2348 12.0318C33.8916 10.6061 34.6609 9.49858 35.1692 8.91462C35.1792 10.292 34.9669 11.5275 34.6382 12.6012C35.6496 13.0891 36.7006 13.7723 37.7049 14.715C36.931 14.6916 35.5957 14.5041 34.1031 14.018C33.4151 15.5352 32.5454 16.5828 31.9751 17.0705C32.0138 15.7937 32.2824 14.57 32.6598 13.4661C31.5932 12.9935 30.5125 12.3597 29.549 11.5209C30.2942 11.4336 31.6539 11.5065 33.2348 12.0318Z" fill="url(#paint2_linear_1_367)"/>
<path fill-rule="evenodd" clip-rule="evenodd" d="M31.0085 43.997C31.9747 41.8994 33.1065 40.27 33.8544 39.4108C33.8691 41.4372 33.5567 43.2549 33.0731 44.8347C34.5611 45.5525 36.1075 46.5576 37.585 47.9445C36.4465 47.9101 34.4818 47.6343 32.2859 46.9191C31.2737 49.1513 29.9941 50.6925 29.1552 51.4101C29.212 49.5315 29.6073 47.7312 30.1625 46.1071C28.5933 45.4118 27.0033 44.4793 25.5857 43.2453C26.6822 43.1168 28.6825 43.2242 31.0085 43.997Z" fill="url(#paint3_linear_1_367)"/>
<circle cx="36.8215" cy="29.6408" r="0.846528" transform="rotate(21.3865 36.8215 29.6408)" fill="#2F235A"/>
<circle cx="57.7817" cy="18.9969" r="0.846528" transform="rotate(21.3865 57.7817 18.9969)" fill="#FE9076"/>
<circle cx="17.5467" cy="23.6211" r="0.846528" transform="rotate(21.3865 17.5467 23.6211)" fill="#FFA400"/>
<circle cx="35.7246" cy="57.7065" r="0.846528" transform="rotate(21.3865 35.7246 57.7065)" fill="#23BB86"/>
<path d="M57.1387 14.9509C56.3151 11.8054 53.3425 4.61153 48.0405 1" stroke="#FE9076" stroke-width="0.736823" stroke-linecap="round"/>
<path d="M15.0482 20.2061C12.9989 17.6817 7.32029 12.358 0.999998 11.259" stroke="#FFA400" stroke-width="0.736823" stroke-linecap="round"/>
<path d="M32.1225 58.9367C30.3064 59.599 25.7347 61.7095 21.9763 64.8528" stroke="#23BB86" stroke-width="0.736823" stroke-linecap="round"/>
<path fill-rule="evenodd" clip-rule="evenodd" d="M94.4275 40.5121C93.7707 39.0864 93.0014 37.9788 92.4931 37.3949C92.4831 38.7722 92.6954 40.0077 93.0241 41.0815C92.0127 41.5694 90.9617 42.2526 89.9574 43.1952C90.7313 43.1718 92.0666 42.9844 93.5592 42.4983C94.2472 44.0155 95.1169 45.0631 95.6871 45.5508C95.6485 44.2739 95.3798 43.0502 95.0025 41.9464C96.0691 41.4738 97.1498 40.84 98.1133 40.0012C97.3681 39.9138 96.0084 39.9868 94.4275 40.5121Z" fill="url(#paint4_linear_1_367)"/>
<path fill-rule="evenodd" clip-rule="evenodd" d="M99.6189 26.2294C99.1817 25.2804 98.6697 24.5432 98.3313 24.1545C98.3246 25.0713 98.466 25.8937 98.6847 26.6084C98.0115 26.9332 97.3119 27.3879 96.6435 28.0154C97.1586 27.9998 98.0474 27.875 99.0409 27.5515C99.4989 28.5614 100.078 29.2587 100.457 29.5833C100.432 28.7334 100.253 27.9189 100.002 27.1841C100.712 26.8695 101.431 26.4476 102.072 25.8893C101.576 25.8312 100.671 25.8798 99.6189 26.2294Z" fill="url(#paint5_linear_1_367)"/>
<path fill-rule="evenodd" clip-rule="evenodd" d="M113.67 12.0318C113.013 10.6061 112.244 9.49858 111.735 8.91462C111.725 10.292 111.937 11.5275 112.266 12.6012C111.255 13.0891 110.204 13.7723 109.199 14.715C109.973 14.6916 111.309 14.5041 112.801 14.018C113.489 15.5352 114.359 16.5828 114.929 17.0705C114.891 15.7937 114.622 14.57 114.245 13.4661C115.311 12.9935 116.392 12.3597 117.355 11.5209C116.61 11.4336 115.251 11.5065 113.67 12.0318Z" fill="url(#paint6_linear_1_367)"/>
<path fill-rule="evenodd" clip-rule="evenodd" d="M115.896 43.997C114.93 41.8994 113.798 40.27 113.05 39.4108C113.035 41.4372 113.348 43.2549 113.831 44.8347C112.343 45.5525 110.797 46.5576 109.319 47.9445C110.458 47.9101 112.423 47.6343 114.618 46.9191C115.631 49.1513 116.91 50.6925 117.749 51.4101C117.692 49.5315 117.297 47.7312 116.742 46.1071C118.311 45.4118 119.901 44.4793 121.319 43.2453C120.222 43.1168 118.222 43.2242 115.896 43.997Z" fill="url(#paint7_linear_1_367)"/>
<circle r="0.846528" transform="matrix(-0.931142 0.364658 0.364658 0.931142 110.083 29.6408)" fill="#2F235A"/>
<circle r="0.846528" transform="matrix(-0.931142 0.364658 0.364658 0.931142 89.1227 18.9969)" fill="#FE9076"/>
<circle r="0.846528" transform="matrix(-0.931142 0.364658 0.364658 0.931142 129.358 23.6211)" fill="#FFA400"/>
<circle r="0.846528" transform="matrix(-0.931142 0.364658 0.364658 0.931142 111.18 57.7065)" fill="#23BB86"/>
<path d="M89.7657 14.9509C90.5893 11.8054 93.5619 4.61153 98.8638 1" stroke="#FE9076" stroke-width="0.736823" stroke-linecap="round"/>
<path d="M131.856 20.2061C133.905 17.6817 139.584 12.358 145.904 11.259" stroke="#FFA400" stroke-width="0.736823" stroke-linecap="round"/>
<path d="M114.782 58.9367C116.598 59.599 121.17 61.7095 124.928 64.8528" stroke="#23BB86" stroke-width="0.736823" stroke-linecap="round"/>
<rect x="28.527" y="104.264" width="89.8505" height="62.1103" fill="url(#paint8_linear_1_367)"/>
<mask id="mask0_1_367" style="mask-type:alpha" maskUnits="userSpaceOnUse" x="28" y="104" width="91" height="63">
<rect x="28.527" y="104.264" width="89.8505" height="62.1103" fill="#C4C4C4"/>
</mask>
<g mask="url(#mask0_1_367)">
<path d="M32.7783 102.683L93.9603 102.683L80.1317 126.694L18.9498 126.694L32.7783 102.683Z" fill="#6F3A3A" fill-opacity="0.07"/>
<rect x="89.6289" y="104.264" width="89.8505" height="62.1103" fill="url(#paint9_linear_1_367)"/>
</g>
<path d="M28.4475 104.264L89.6295 104.264L77.811 123.986L16.629 123.987L28.4475 104.264Z" fill="url(#paint10_linear_1_367)"/>
<mask id="mask1_1_367" style="mask-type:alpha" maskUnits="userSpaceOnUse" x="89" y="104" width="30" height="63">
<rect x="89.6295" y="104.264" width="28.7479" height="62.1103" fill="#C4C4C4"/>
</mask>
<g mask="url(#mask1_1_367)">
<path d="M114.878 104.161L86.0847 104.161L99.6139 126.868L128.407 126.868L114.878 104.161Z" fill="black" fill-opacity="0.07"/>
</g>
<path d="M118.422 104.264L89.6295 104.264L101.448 123.986L130.241 123.986L118.422 104.264Z" fill="url(#paint11_linear_1_367)"/>
<circle cx="58.3779" cy="88.4442" r="8.49082" fill="url(#paint12_linear_1_367)"/>
<circle cx="91.5792" cy="71.7487" r="8.20473" fill="url(#paint13_linear_1_367)"/>
<circle cx="60.2524" cy="56.9276" r="6.61631" fill="url(#paint14_linear_1_367)"/>
<circle cx="85.594" cy="41.7884" r="5.98519" fill="url(#paint15_linear_1_367)"/>
<circle cx="75.8538" cy="64.2112" r="1.65" fill="#2F5CBA"/>
<circle cx="101.434" cy="51.9613" r="1.65" fill="#2F5CBA"/>
<circle cx="61.9024" cy="32.2523" r="1.65" fill="#2F5CBA"/>
<circle cx="83.944" cy="92.1087" r="1.65" fill="#2F5CBA"/>
<circle cx="45.7938" cy="65.8612" r="1.65" fill="#2F5CBA"/>
<path d="M118.59 104.558H28.4558L14.6135 19.21H135.211L118.59 104.558Z" fill="url(#paint16_linear_1_367)"/>
<defs>
<linearGradient id="paint0_linear_1_367" x1="54.1614" y1="38.2982" x2="51.1624" y2="45.9561" gradientUnits="userSpaceOnUse">
<stop stop-color="#FFE89E"/>
<stop offset="1" stop-color="#FFBF1A"/>
</linearGradient>
<linearGradient id="paint1_linear_1_367" x1="48.4067" y1="24.7558" x2="46.4105" y2="29.8531" gradientUnits="userSpaceOnUse">
<stop stop-color="#FFE89E"/>
<stop offset="1" stop-color="#FFBF1A"/>
</linearGradient>
<linearGradient id="paint2_linear_1_367" x1="34.9193" y1="9.81798" x2="31.9203" y2="17.4759" gradientUnits="userSpaceOnUse">
<stop stop-color="#FFE89E"/>
<stop offset="1" stop-color="#FFBF1A"/>
</linearGradient>
<linearGradient id="paint3_linear_1_367" x1="33.4867" y1="40.7399" x2="29.0745" y2="52.0064" gradientUnits="userSpaceOnUse">
<stop stop-color="#FFE89E"/>
<stop offset="1" stop-color="#FFBF1A"/>
</linearGradient>
<linearGradient id="paint4_linear_1_367" x1="92.743" y1="38.2982" x2="95.742" y2="45.9561" gradientUnits="userSpaceOnUse">
<stop stop-color="#FFE89E"/>
<stop offset="1" stop-color="#FFBF1A"/>
</linearGradient>
<linearGradient id="paint5_linear_1_367" x1="98.4976" y1="24.7558" x2="100.494" y2="29.8531" gradientUnits="userSpaceOnUse">
<stop stop-color="#FFE89E"/>
<stop offset="1" stop-color="#FFBF1A"/>
</linearGradient>
<linearGradient id="paint6_linear_1_367" x1="111.985" y1="9.81798" x2="114.984" y2="17.4759" gradientUnits="userSpaceOnUse">
<stop stop-color="#FFE89E"/>
<stop offset="1" stop-color="#FFBF1A"/>
</linearGradient>
<linearGradient id="paint7_linear_1_367" x1="113.418" y1="40.7399" x2="117.83" y2="52.0064" gradientUnits="userSpaceOnUse">
<stop stop-color="#FFE89E"/>
<stop offset="1" stop-color="#FFBF1A"/>
</linearGradient>
<linearGradient id="paint8_linear_1_367" x1="58.5412" y1="92.7649" x2="22.7309" y2="191.397" gradientUnits="userSpaceOnUse">
<stop stop-color="#5378E7"/>
<stop offset="1" stop-color="#052484"/>
</linearGradient>
<linearGradient id="paint9_linear_1_367" x1="43.8567" y1="100.325" x2="152.537" y2="216.464" gradientUnits="userSpaceOnUse">
<stop stop-color="#5478E8"/>
<stop offset="0.83311" stop-color="#052484"/>
</linearGradient>
<linearGradient id="paint10_linear_1_367" x1="29.7066" y1="97.2151" x2="26.799" y2="139.238" gradientUnits="userSpaceOnUse">
<stop stop-color="#5478E8"/>
<stop offset="1" stop-color="#062686"/>
</linearGradient>
<linearGradient id="paint11_linear_1_367" x1="122.966" y1="97.2151" x2="128.137" y2="138.796" gradientUnits="userSpaceOnUse">
<stop stop-color="#052484"/>
<stop offset="1" stop-color="#5176E5"/>
</linearGradient>
<linearGradient id="paint12_linear_1_367" x1="59.0209" y1="77.1511" x2="57.4058" y2="100.07" gradientUnits="userSpaceOnUse">
<stop stop-color="#1B3B9F"/>
<stop offset="1" stop-color="#4F6ED5"/>
</linearGradient>
<linearGradient id="paint13_linear_1_367" x1="92.2005" y1="60.8361" x2="90.6398" y2="82.9827" gradientUnits="userSpaceOnUse">
<stop stop-color="#1C3DA1"/>
<stop offset="1" stop-color="#4F6ED4"/>
</linearGradient>
<linearGradient id="paint14_linear_1_367" x1="60.7534" y1="48.1277" x2="59.4949" y2="65.9867" gradientUnits="userSpaceOnUse">
<stop stop-color="#1D3EA2"/>
<stop offset="1" stop-color="#4F6ED3"/>
</linearGradient>
<linearGradient id="paint15_linear_1_367" x1="86.0472" y1="33.8279" x2="84.9088" y2="49.9834" gradientUnits="userSpaceOnUse">
<stop stop-color="#516FD6"/>
<stop offset="1" stop-color="#1C3DA1"/>
</linearGradient>
<linearGradient id="paint16_linear_1_367" x1="73.9215" y1="19.21" x2="73.9215" y2="200.534" gradientUnits="userSpaceOnUse">
<stop stop-color="white" stop-opacity="0"/>
<stop offset="0.318712" stop-color="#D4EDFF" stop-opacity="0.318712"/>
<stop offset="1" stop-color="#77C5FE"/>
</linearGradient>
</defs>
</svg>
